<svg width="50" height="55" viewBox="0 0 50 55" fill="none" xmlns="http://www.w3.org/2000/svg">
<g filter="url(#filter0_d_68_880)">
<path d="M24.63 10.4515C22.7753 10.4515 20.9624 10.9333 19.4203 11.8359C17.8782 12.7386 16.6763 14.0216 15.9665 15.5226C15.2568 17.0237 15.0711 18.6754 15.4329 20.2689C15.7947 21.8624 16.6878 23.3261 17.9993 24.475C19.3107 25.6238 20.9816 26.4062 22.8006 26.7232C24.6196 27.0402 26.5051 26.8775 28.2185 26.2557C29.932 25.634 31.3965 24.5811 32.4269 23.2302C33.4573 21.8792 34.0073 20.291 34.0073 18.6663C34.0073 16.4876 33.0193 14.3981 31.2607 12.8575C29.5022 11.317 27.117 10.4515 24.63 10.4515ZM24.63 23.5951C23.5172 23.5951 22.4294 23.3061 21.5042 22.7645C20.5789 22.2229 19.8578 21.4531 19.4319 20.5525C19.0061 19.6518 18.8946 18.6608 19.1117 17.7047C19.3288 16.7486 19.8647 15.8703 20.6516 15.181C21.4384 14.4917 22.4409 14.0223 23.5324 13.8321C24.6238 13.6419 25.755 13.7395 26.7831 14.1126C27.8112 14.4856 28.6899 15.1174 29.3081 15.9279C29.9264 16.7385 30.2564 17.6914 30.2564 18.6663C30.2564 19.9735 29.6636 21.2272 28.6084 22.1515C27.5533 23.0758 26.1222 23.5951 24.63 23.5951ZM24.63 0.59375C19.1605 0.599186 13.9168 2.50499 10.0492 5.89307C6.18171 9.28115 4.0062 13.8748 4 18.6663C4 25.1149 7.40161 31.9496 13.8461 38.4331C16.7419 41.3628 20.001 44.0009 23.5633 46.2987C23.8787 46.4922 24.2544 46.5961 24.6394 46.5961C25.0244 46.5961 25.4001 46.4922 25.7154 46.2987C29.2711 44 32.524 41.3619 35.4139 38.4331C41.849 31.9496 45.26 25.1149 45.26 18.6663C45.2538 13.8748 43.0783 9.28115 39.2108 5.89307C35.3432 2.50499 30.0995 0.599186 24.63 0.59375ZM24.63 42.8999C20.7548 40.2301 7.75091 30.4237 7.75091 18.6663C7.75091 14.7446 9.52924 10.9836 12.6947 8.21056C15.8601 5.43753 20.1534 3.87966 24.63 3.87966C29.1066 3.87966 33.3999 5.43753 36.5653 8.21056C39.7308 10.9836 41.5091 14.7446 41.5091 18.6663C41.5091 30.4196 28.5052 40.2301 24.63 42.8999Z" fill="#FFBF00"/>
<path d="M13.9884 38.2925L13.988 38.2921C7.56511 31.8304 4.20005 25.0435 4.2 18.6664C4.20616 13.9371 6.35324 9.39677 10.181 6.04351C14.0096 2.68952 19.2056 0.799187 24.63 0.79375C30.0544 0.799187 35.2503 2.68952 39.079 6.04351C42.9068 9.3968 45.0539 13.9372 45.06 18.6665C45.0599 25.0434 41.6856 31.8303 35.2719 38.2922L35.2715 38.2926C32.3927 41.2102 29.1519 43.8387 25.6088 46.1295C25.3267 46.3021 24.9882 46.3961 24.6394 46.3961C24.2905 46.3961 23.952 46.3021 23.6698 46.1294C20.1202 43.8396 16.8731 41.211 13.9884 38.2925ZM24.5165 43.0646L24.63 43.1427L24.7435 43.0646C26.6874 41.7253 30.9222 38.5944 34.673 34.3213C38.4204 30.0522 41.7091 24.6151 41.7091 18.6663C41.7091 14.6824 39.9023 10.868 36.6971 8.06012C33.4927 5.253 29.1517 3.67966 24.63 3.67966C20.1083 3.67966 15.7673 5.253 12.5629 8.06012C9.35768 10.868 7.55091 14.6824 7.55091 18.6663C7.55091 24.6171 10.8396 30.0542 14.587 34.3229C18.3378 38.5955 22.5726 41.7253 24.5165 43.0646ZM19.5213 12.0085C21.0315 11.1245 22.8095 10.6515 24.63 10.6515C27.0719 10.6515 29.4093 11.5015 31.1289 13.008C32.8478 14.5137 33.8073 16.5498 33.8073 18.6663C33.8073 20.2451 33.273 21.7911 32.2679 23.1089C31.2625 24.4271 29.8305 25.4581 28.1503 26.0677C26.4701 26.6774 24.62 26.8372 22.8349 26.5262C21.0498 26.2151 19.4132 25.4478 18.1311 24.3246C16.8491 23.2015 15.9798 21.7741 15.6279 20.2246C15.2762 18.6755 15.4564 17.0694 16.1473 15.6081C16.8385 14.1463 18.0112 12.8925 19.5213 12.0085ZM21.4031 22.9371C22.3602 23.4973 23.4831 23.7951 24.63 23.7951C26.1673 23.7951 27.6462 23.2604 28.7402 22.3019C29.8351 21.3428 30.4564 20.0357 30.4564 18.6663C30.4564 17.6455 30.1107 16.6503 29.4672 15.8066C28.824 14.9634 27.9127 14.3097 26.8513 13.9246C25.79 13.5395 24.6233 13.439 23.498 13.6351C22.3727 13.8312 21.3359 14.3157 20.5198 15.0306C19.7034 15.7458 19.1438 16.6603 18.9167 17.6604C18.6895 18.6609 18.8065 19.6976 19.2511 20.638C19.6955 21.5778 20.4459 22.3768 21.4031 22.9371Z" stroke="#FFBF00" stroke-width="0.4"/>
</g>
<defs>
<filter id="filter0_d_68_880" x="0" y="0.59375" width="49.26" height="54.0022" filterUnits="userSpaceOnUse" color-interpolation-filters="sRGB">
<feFlood flood-opacity="0" result="BackgroundImageFix"/>
<feColorMatrix in="SourceAlpha" type="matrix" values="0 0 0 0 0 0 0 0 0 0 0 0 0 0 0 0 0 0 127 0" result="hardAlpha"/>
<feOffset dy="4"/>
<feGaussianBlur stdDeviation="2"/>
<feComposite in2="hardAlpha" operator="out"/>
<feColorMatrix type="matrix" values="0 0 0 0 0 0 0 0 0 0 0 0 0 0 0 0 0 0 0.25 0"/>
<feBlend mode="normal" in2="BackgroundImageFix" result="effect1_dropShadow_68_880"/>
<feBlend mode="normal" in="SourceGraphic" in2="effect1_dropShadow_68_880" result="shape"/>
</filter>
</defs>
</svg>
